<svg xmlns="http://www.w3.org/2000/svg" viewBox="0 0 17 17" fill="none">
    <path d="M16.66 8.69318C16.66 8.09045 16.6059 7.51091 16.5055 6.95454H8.5V10.2464H13.0745C12.8736 11.305 12.2709 12.2014 11.3668 12.8041V14.9445H14.1255C15.7327 13.4609 16.66 11.2818 16.66 8.69318Z" fill="#4285F4"/>
    <path d="M8.49999 17C10.795 17 12.7191 16.2427 14.1254 14.9445L11.3668 12.8041C10.6095 13.3141 9.64363 13.6232 8.49999 13.6232C6.28999 13.6232 4.41227 12.1318 3.73999 10.1227H0.911813V12.3173C2.31045 15.0914 5.17727 17 8.49999 17Z" fill="#34A853"/>
    <path d="M3.74 10.115C3.57 9.605 3.46955 9.06409 3.46955 8.5C3.46955 7.93591 3.57 7.395 3.74 6.885V4.69046H0.911818C0.332273 5.83409 0 7.12455 0 8.5C0 9.87546 0.332273 11.1659 0.911818 12.3095L3.11409 10.5941L3.74 10.115Z" fill="#FBBC05"/>
    <path d="M8.49999 3.38454C9.75181 3.38454 10.8645 3.81727 11.7532 4.65182L14.1873 2.21773C12.7114 0.842272 10.795 0 8.49999 0C5.17727 0 2.31045 1.90864 0.911813 4.69045L3.73999 6.885C4.41227 4.87591 6.28999 3.38454 8.49999 3.38454Z" fill="#EA4335"/>
</svg>
